<svg width="176" height="211" viewBox="0 0 176 211" fill="none" xmlns="http://www.w3.org/2000/svg">
<mask id="mask0_8235_11" style="mask-type:luminance" maskUnits="userSpaceOnUse" x="38" y="0" width="98" height="139">
<path d="M38.7429 0.576271H135.44V138.184H38.7429V0.576271Z" fill="white"/>
</mask>
<g mask="url(#mask0_8235_11)">
<path d="M37.018 18.5302C36.5966 9.83775 43.6426 0.966109 52.6789 1.01938C78.2382 0.990323 103.797 1.01938 129.357 1.00001C130.577 1.07749 133.182 0.869257 132.795 2.88378C132.95 36.8837 132.897 70.8933 132.819 104.883C133.085 108.961 128.824 110.191 125.555 110.205C124.834 113.179 124.654 116.259 125.521 119.232C127.415 119.663 129.725 119.329 131.245 120.782C133.318 122.67 133.076 125.818 132.596 128.322C130.877 129.111 128.95 128.854 127.129 128.922C113.1 128.82 99.071 128.99 85.0469 128.845C83.2599 128.956 82.2817 127.891 82.9742 126.109C86.0687 124.995 89.4585 125.707 92.6836 125.527C105.182 125.397 117.701 125.837 130.19 125.295C129.444 123.532 127.981 122.404 126.02 122.825C113.066 122.869 100.112 122.811 87.1728 122.869C85.3907 122.811 82.4948 123.189 82.6401 120.583C83.7684 119.242 85.5747 119.528 87.1292 119.46C98.795 119.494 110.451 119.474 122.112 119.484C121.962 118.617 121.638 116.912 121.473 116.046C107.42 116.046 93.3713 116.046 79.3229 116.046C79.1776 123.043 79.6086 130.075 79.1244 137.058L78.2333 137.958C74.8193 137.184 71.8024 135.31 68.6208 133.92C65.4246 135.406 62.2334 136.908 59.0082 138.312C57.3327 135.44 58.0445 132.046 57.9089 128.898C53.5506 128.811 48.8726 129.397 44.8678 127.247C39.938 124.753 36.8194 119.3 37.0422 113.789C36.9986 82.0409 37.018 50.2783 37.018 18.5302ZM47.8751 117.736C50.4029 120.506 54.6305 119.155 57.9235 119.508C57.9331 118.666 57.9574 116.98 57.967 116.147C55.8024 115.862 53.231 116.603 51.4586 114.975C51.5215 112.99 53.2891 112.569 54.9356 112.714C75.2987 112.733 95.6473 112.699 116.006 112.733C118.543 112.544 122.291 113.765 122.514 110.041C98.8967 109.939 75.2648 109.915 51.6474 110.041C47.8121 109.77 45.2601 114.85 47.8751 117.736ZM61.2842 116.051C61.2842 121.915 61.2939 127.784 61.2842 133.649C63.6668 132.564 65.9719 131.295 68.4561 130.462C71.1195 131.096 73.4924 132.569 75.996 133.634C75.9525 127.779 75.9767 121.925 75.9767 116.06C71.076 116.06 66.1849 116.051 61.2842 116.051Z" fill="#C82B1D"/>
</g>
<path d="M40.8719 181.786L40.7944 164.759L32.5232 178.629H28.4942L20.2812 165.224V181.786H11.8938V149.67H19.3707L30.6443 168.207L41.6661 149.67H49.1431L49.2205 181.786H40.8719Z" fill="black"/>
<path d="M75.0394 175.549H61.4608L58.9426 181.786H49.6836L63.8627 149.67H72.7925L87.0103 181.786H77.5769L75.0394 175.549ZM72.3857 168.847L68.2598 158.58L64.1339 168.847H72.3857Z" fill="black"/>
<path d="M101.502 173.263H96.5623V181.786H87.4776V149.67H102.16C105.051 149.67 107.57 150.154 109.715 151.123C111.855 152.091 113.511 153.476 114.674 155.268C115.836 157.05 116.417 159.152 116.417 161.563C116.417 163.888 115.875 165.917 114.79 167.646C113.705 169.365 112.155 170.716 110.141 171.694L117.056 181.786H107.332L101.502 173.263ZM107.235 161.563C107.235 160.067 106.761 158.905 105.821 158.077C104.877 157.253 103.468 156.837 101.599 156.837H96.5623V166.232H101.599C103.468 166.232 104.877 165.834 105.821 165.031C106.761 164.217 107.235 163.065 107.235 161.563Z" fill="black"/>
<path d="M119.307 149.67H128.392V181.786H119.307V149.67ZM125.506 140.082H134.222L125.603 147.055H119.365L125.506 140.082Z" fill="black"/>
<path d="M154.246 175.549H140.668L138.149 181.786H128.89L143.07 149.67H151.999L166.217 181.786H156.784L154.246 175.549ZM151.593 168.847L147.467 158.58L143.341 168.847H151.593Z" fill="black"/>
<path d="M37.2781 195.973H41.8301C42.9391 195.973 43.927 196.196 44.7938 196.631C45.6558 197.058 46.3289 197.668 46.8083 198.452C47.2829 199.242 47.525 200.152 47.525 201.184C47.525 202.22 47.2829 203.13 46.8083 203.915C46.3289 204.704 45.6558 205.319 44.7938 205.755C43.927 206.181 42.9391 206.394 41.8301 206.394H37.2781V195.973ZM41.7526 204.767C42.5129 204.767 43.186 204.622 43.7672 204.322C44.3483 204.026 44.7938 203.605 45.1037 203.062C45.4136 202.52 45.5686 201.895 45.5686 201.184C45.5686 200.476 45.4136 199.847 45.1037 199.305C44.7938 198.762 44.3483 198.351 43.7672 198.065C43.186 197.769 42.5129 197.619 41.7526 197.619H39.2151V204.767H41.7526Z" fill="black"/>
<path d="M59.4849 204.767V206.394H51.6786V195.973H59.2912V197.6H53.6156V200.312H58.6519V201.9H53.6156V204.767H59.4849Z" fill="black"/>
<path d="M69.9767 195.973H71.9138V204.767H77.3569V206.394H69.9767V195.973Z" fill="black"/>
<path d="M88.8065 204.767V206.394H81.0002V195.973H88.6128V197.6H82.9373V200.312H87.9736V201.9H82.9373V204.767H88.8065Z" fill="black"/>
<path d="M95.1913 197.619H91.7434V195.973H100.576V197.619H97.1284V206.394H95.1913V197.619Z" fill="black"/>
<path d="M110.967 206.394L108.836 203.353C108.744 203.353 108.608 203.353 108.429 203.353H106.085V206.394H104.148V195.973H108.429C109.33 195.973 110.119 196.123 110.792 196.418C111.46 196.719 111.974 197.145 112.322 197.697C112.681 198.254 112.865 198.917 112.865 199.692C112.865 200.467 112.671 201.14 112.284 201.707C111.906 202.278 111.364 202.694 110.657 202.966L113.039 206.394H110.967ZM110.928 199.692C110.928 199.024 110.705 198.51 110.269 198.162C109.829 197.803 109.189 197.619 108.352 197.619H106.085V201.765H108.352C109.189 201.765 109.829 201.585 110.269 201.222C110.705 200.864 110.928 200.351 110.928 199.692Z" fill="black"/>
<path d="M123.896 203.992H118.685L117.658 206.394H115.663L120.351 195.973H122.249L126.956 206.394H124.942L123.896 203.992ZM123.256 202.462L121.281 197.91L119.344 202.462H123.256Z" fill="black"/>
<path d="M133.625 206.549C132.821 206.549 132.047 206.433 131.301 206.2C130.55 205.968 129.955 205.668 129.519 205.29L130.177 203.799C130.603 204.137 131.126 204.414 131.746 204.631C132.366 204.84 132.991 204.941 133.625 204.941C134.4 204.941 134.971 204.82 135.349 204.573C135.737 204.317 135.93 203.987 135.93 203.585C135.93 203.29 135.819 203.043 135.601 202.849C135.393 202.656 135.122 202.51 134.787 202.404C134.463 202.288 134.017 202.162 133.451 202.016C132.662 201.837 132.022 201.648 131.533 201.455C131.039 201.261 130.613 200.966 130.255 200.564C129.906 200.167 129.732 199.624 129.732 198.937C129.732 198.37 129.887 197.852 130.197 197.387C130.516 196.912 130.991 196.535 131.611 196.263C132.24 195.983 133.015 195.837 133.935 195.837C134.565 195.837 135.185 195.915 135.795 196.07C136.415 196.225 136.947 196.452 137.402 196.748L136.783 198.259C136.327 197.987 135.853 197.789 135.349 197.658C134.855 197.518 134.381 197.445 133.916 197.445C133.151 197.445 132.584 197.576 132.211 197.832C131.833 198.094 131.649 198.433 131.649 198.859C131.649 199.159 131.751 199.401 131.959 199.595C132.177 199.779 132.448 199.924 132.773 200.041C133.107 200.147 133.557 200.263 134.129 200.389C134.904 200.573 135.533 200.757 136.027 200.951C136.531 201.145 136.957 201.445 137.306 201.842C137.654 202.244 137.829 202.782 137.829 203.45C137.829 204.021 137.674 204.544 137.364 205.019C137.054 205.484 136.579 205.861 135.95 206.142C135.315 206.414 134.54 206.549 133.625 206.549Z" fill="black"/>
</svg>
