<svg width="152" height="169" viewBox="0 0 152 169" fill="none" xmlns="http://www.w3.org/2000/svg">
<mask id="mask0_8237_251" style="mask-type:luminance" maskUnits="userSpaceOnUse" x="18" y="7" width="116" height="154">
<path d="M18.25 7H133.25V161H18.25V7Z" fill="white"/>
</mask>
<g mask="url(#mask0_8237_251)">
<path d="M16.1986 27.0927C15.6975 17.3648 24.0772 7.43628 34.8239 7.49589C65.221 7.46337 95.6182 7.49589 126.015 7.47421C127.467 7.56092 130.565 7.32789 130.104 9.58239C130.289 47.6326 130.225 85.6936 130.133 123.733C130.45 128.296 125.382 129.673 121.494 129.689C120.636 133.017 120.423 136.463 121.454 139.791C123.706 140.273 126.453 139.899 128.261 141.525C130.726 143.639 130.438 147.161 129.868 149.963C127.824 150.847 125.532 150.559 123.366 150.635C106.682 150.521 89.9972 150.711 73.3185 150.549C71.1933 150.673 70.03 149.481 70.8535 147.487C74.5337 146.24 78.5651 147.037 82.4008 146.836C97.2653 146.69 112.153 147.183 127.006 146.576C126.119 144.603 124.38 143.341 122.047 143.812C106.641 143.861 91.2354 143.796 75.8468 143.861C73.7274 143.796 70.2834 144.219 70.4562 141.303C71.7981 139.802 73.9462 140.121 75.7949 140.046C89.6689 140.084 103.531 140.062 117.4 140.073C117.221 139.103 116.835 137.195 116.639 136.225C99.9261 136.225 83.2186 136.225 66.5111 136.225C66.3383 144.056 66.8509 151.925 66.275 159.74L65.2153 160.748C61.155 159.881 57.567 157.784 53.7832 156.228C49.9821 157.892 46.1868 159.572 42.3512 161.144C40.3585 157.93 41.2051 154.131 41.0438 150.608C35.8606 150.511 30.2972 151.166 25.5343 148.76C19.6714 145.969 15.9625 139.867 16.2274 133.699C16.1756 98.1692 16.1986 62.6229 16.1986 27.0927ZM29.1108 138.116C32.1171 141.216 37.1449 139.704 41.0611 140.1C41.0726 139.157 41.1014 137.271 41.113 136.339C38.5386 136.019 35.4804 136.848 33.3726 135.027C33.4474 132.805 35.5496 132.334 37.5077 132.496C61.7252 132.518 85.9254 132.48 110.137 132.518C113.155 132.307 117.613 133.672 117.878 129.505C89.7898 129.391 61.6849 129.364 33.5972 129.505C29.0359 129.201 26.0008 134.886 29.1108 138.116ZM45.058 136.23C45.058 142.793 45.0695 149.362 45.058 155.925C47.8916 154.711 50.6329 153.291 53.5874 152.359C56.755 153.069 59.577 154.716 62.5545 155.908C62.5027 149.356 62.5315 142.804 62.5315 136.241C56.7032 136.241 50.8863 136.23 45.058 136.23Z" fill="#C82B1D"/>
</g>
</svg>
