<svg xmlns="http://www.w3.org/2000/svg" xmlns:xlink="http://www.w3.org/1999/xlink" width="500" zoomAndPan="magnify" viewBox="0 0 375 374.999991" height="500" preserveAspectRatio="xMidYMid meet" version="1.0"><defs><g/><clipPath id="d756f01fe9"><path d="M 148.46875 102.464844 L 226.46875 102.464844 L 226.46875 213.464844 L 148.46875 213.464844 Z M 148.46875 102.464844 " clip-rule="nonzero"/></clipPath></defs><g clip-path="url(#d756f01fe9)"><path fill="#92400e" d="M 148.824219 116.707031 C 148.484375 109.695312 154.167969 102.539062 161.457031 102.582031 C 182.074219 102.558594 202.691406 102.582031 223.308594 102.566406 C 224.292969 102.628906 226.394531 102.460938 226.082031 104.085938 C 226.207031 131.511719 226.164062 158.945312 226.101562 186.363281 C 226.316406 189.652344 222.878906 190.644531 220.242188 190.65625 C 219.660156 193.054688 219.515625 195.539062 220.214844 197.9375 C 221.742188 198.285156 223.605469 198.015625 224.832031 199.1875 C 226.503906 200.710938 226.308594 203.25 225.921875 205.269531 C 224.535156 205.90625 222.980469 205.699219 221.511719 205.753906 C 210.195312 205.671875 198.878906 205.808594 187.566406 205.691406 C 186.125 205.78125 185.335938 204.921875 185.894531 203.484375 C 188.390625 202.585938 191.125 203.160156 193.726562 203.015625 C 203.808594 202.910156 213.90625 203.265625 223.980469 202.828125 C 223.378906 201.40625 222.199219 200.496094 220.617188 200.835938 C 210.167969 200.871094 199.71875 200.824219 189.28125 200.871094 C 187.84375 200.824219 185.507812 201.128906 185.625 199.027344 C 186.535156 197.945312 187.992188 198.175781 189.246094 198.121094 C 198.65625 198.148438 208.058594 198.132812 217.464844 198.140625 C 217.34375 197.441406 217.082031 196.066406 216.949219 195.367188 C 205.613281 195.367188 194.28125 195.367188 182.949219 195.367188 C 182.832031 201.011719 183.179688 206.683594 182.789062 212.316406 L 182.070312 213.042969 C 179.316406 212.417969 176.882812 210.90625 174.316406 209.785156 C 171.738281 210.984375 169.164062 212.195312 166.5625 213.328125 C 165.210938 211.011719 165.785156 208.273438 165.675781 205.734375 C 162.160156 205.664062 158.386719 206.136719 155.15625 204.402344 C 151.179688 202.390625 148.664062 197.992188 148.84375 193.546875 C 148.808594 167.9375 148.824219 142.316406 148.824219 116.707031 Z M 157.582031 196.730469 C 159.621094 198.964844 163.03125 197.875 165.6875 198.160156 C 165.695312 197.480469 165.714844 196.121094 165.722656 195.449219 C 163.976562 195.21875 161.902344 195.816406 160.472656 194.503906 C 160.523438 192.902344 161.949219 192.5625 163.277344 192.679688 C 179.703125 192.695312 196.117188 192.667969 212.539062 192.695312 C 214.585938 192.542969 217.609375 193.527344 217.789062 190.523438 C 198.738281 190.441406 179.675781 190.421875 160.625 190.523438 C 157.53125 190.304688 155.472656 194.402344 157.582031 196.730469 Z M 168.398438 195.371094 C 168.398438 200.101562 168.40625 204.835938 168.398438 209.566406 C 170.320312 208.691406 172.179688 207.667969 174.183594 206.996094 C 176.332031 207.507812 178.246094 208.695312 180.265625 209.554688 C 180.230469 204.832031 180.25 200.109375 180.25 195.378906 C 176.296875 195.378906 172.351562 195.371094 168.398438 195.371094 Z M 168.398438 195.371094 " fill-opacity="1" fill-rule="nonzero"/></g><g fill="#000000" fill-opacity="1"><g transform="translate(124.217354, 248.63641)"><g><path d="M 25.96875 0 L 25.90625 -13.734375 L 19.234375 -2.546875 L 15.984375 -2.546875 L 9.359375 -13.359375 L 9.359375 0 L 2.59375 0 L 2.59375 -25.90625 L 8.625 -25.90625 L 17.71875 -10.953125 L 26.609375 -25.90625 L 32.640625 -25.90625 L 32.703125 0 Z M 25.96875 0 "/></g></g></g><g fill="#000000" fill-opacity="1"><g transform="translate(157.809595, 248.63641)"><g><path d="M 19.9375 -5.03125 L 8.984375 -5.03125 L 6.953125 0 L -0.515625 0 L 10.921875 -25.90625 L 18.125 -25.90625 L 29.59375 0 L 21.984375 0 Z M 17.796875 -10.4375 L 14.46875 -18.71875 L 11.140625 -10.4375 Z M 17.796875 -10.4375 "/></g></g></g><g fill="#000000" fill-opacity="1"><g transform="translate(185.186505, 248.63641)"><g><path d="M 13.90625 -6.875 L 9.921875 -6.875 L 9.921875 0 L 2.59375 0 L 2.59375 -25.90625 L 14.4375 -25.90625 C 16.769531 -25.90625 18.800781 -25.515625 20.53125 -24.734375 C 22.257812 -23.953125 23.59375 -22.835938 24.53125 -21.390625 C 25.46875 -19.953125 25.9375 -18.257812 25.9375 -16.3125 C 25.9375 -14.4375 25.5 -12.800781 24.625 -11.40625 C 23.75 -10.019531 22.5 -8.929688 20.875 -8.140625 L 26.453125 0 L 18.609375 0 Z M 18.53125 -16.3125 C 18.53125 -17.519531 18.148438 -18.457031 17.390625 -19.125 C 16.628906 -19.789062 15.492188 -20.125 13.984375 -20.125 L 9.921875 -20.125 L 9.921875 -12.546875 L 13.984375 -12.546875 C 15.492188 -12.546875 16.628906 -12.867188 17.390625 -13.515625 C 18.148438 -14.171875 18.53125 -15.101562 18.53125 -16.3125 Z M 18.53125 -16.3125 "/></g></g></g><g fill="#000000" fill-opacity="1"><g transform="translate(210.861597, 248.63641)"><g><path d="M 2.59375 -25.90625 L 9.921875 -25.90625 L 9.921875 0 L 2.59375 0 Z M 7.59375 -33.640625 L 14.625 -33.640625 L 7.671875 -28.015625 L 2.640625 -28.015625 Z M 7.59375 -33.640625 "/></g></g></g><g fill="#000000" fill-opacity="1"><g transform="translate(221.701268, 248.63641)"><g><path d="M 19.9375 -5.03125 L 8.984375 -5.03125 L 6.953125 0 L -0.515625 0 L 10.921875 -25.90625 L 18.125 -25.90625 L 29.59375 0 L 21.984375 0 Z M 17.796875 -10.4375 L 14.46875 -18.71875 L 11.140625 -10.4375 Z M 17.796875 -10.4375 "/></g></g></g><g fill="#000000" fill-opacity="1"><g transform="translate(146.162192, 268.486389)"><g><path d="M 1.125 -8.40625 L 4.796875 -8.40625 C 5.691406 -8.40625 6.488281 -8.226562 7.1875 -7.875 C 7.882812 -7.53125 8.425781 -7.039062 8.8125 -6.40625 C 9.195312 -5.769531 9.390625 -5.035156 9.390625 -4.203125 C 9.390625 -3.367188 9.195312 -2.632812 8.8125 -2 C 8.425781 -1.363281 7.882812 -0.867188 7.1875 -0.515625 C 6.488281 -0.171875 5.691406 0 4.796875 0 L 1.125 0 Z M 4.734375 -1.3125 C 5.347656 -1.3125 5.890625 -1.429688 6.359375 -1.671875 C 6.828125 -1.910156 7.1875 -2.25 7.4375 -2.6875 C 7.6875 -3.125 7.8125 -3.628906 7.8125 -4.203125 C 7.8125 -4.773438 7.6875 -5.28125 7.4375 -5.71875 C 7.1875 -6.15625 6.828125 -6.488281 6.359375 -6.71875 C 5.890625 -6.957031 5.347656 -7.078125 4.734375 -7.078125 L 2.6875 -7.078125 L 2.6875 -1.3125 Z M 4.734375 -1.3125 "/></g></g></g><g fill="#000000" fill-opacity="1"><g transform="translate(157.778242, 268.486389)"><g><path d="M 7.421875 -1.3125 L 7.421875 0 L 1.125 0 L 1.125 -8.40625 L 7.265625 -8.40625 L 7.265625 -7.09375 L 2.6875 -7.09375 L 2.6875 -4.90625 L 6.75 -4.90625 L 6.75 -3.625 L 2.6875 -3.625 L 2.6875 -1.3125 Z M 7.421875 -1.3125 "/></g></g></g><g fill="#000000" fill-opacity="1"><g transform="translate(167.522279, 268.486389)"><g/></g></g><g fill="#000000" fill-opacity="1"><g transform="translate(172.538316, 268.486389)"><g><path d="M 1.125 -8.40625 L 2.6875 -8.40625 L 2.6875 -1.3125 L 7.078125 -1.3125 L 7.078125 0 L 1.125 0 Z M 1.125 -8.40625 "/></g></g></g><g fill="#000000" fill-opacity="1"><g transform="translate(181.430352, 268.486389)"><g><path d="M 7.421875 -1.3125 L 7.421875 0 L 1.125 0 L 1.125 -8.40625 L 7.265625 -8.40625 L 7.265625 -7.09375 L 2.6875 -7.09375 L 2.6875 -4.90625 L 6.75 -4.90625 L 6.75 -3.625 L 2.6875 -3.625 L 2.6875 -1.3125 Z M 7.421875 -1.3125 "/></g></g></g><g fill="#000000" fill-opacity="1"><g transform="translate(191.174389, 268.486389)"><g><path d="M 2.828125 -7.078125 L 0.046875 -7.078125 L 0.046875 -8.40625 L 7.171875 -8.40625 L 7.171875 -7.078125 L 4.390625 -7.078125 L 4.390625 0 L 2.828125 0 Z M 2.828125 -7.078125 "/></g></g></g><g fill="#000000" fill-opacity="1"><g transform="translate(200.102428, 268.486389)"><g><path d="M 6.625 0 L 4.90625 -2.453125 C 4.832031 -2.453125 4.722656 -2.453125 4.578125 -2.453125 L 2.6875 -2.453125 L 2.6875 0 L 1.125 0 L 1.125 -8.40625 L 4.578125 -8.40625 C 5.304688 -8.40625 5.941406 -8.285156 6.484375 -8.046875 C 7.023438 -7.804688 7.4375 -7.460938 7.71875 -7.015625 C 8.007812 -6.566406 8.15625 -6.03125 8.15625 -5.40625 C 8.15625 -4.78125 8 -4.238281 7.6875 -3.78125 C 7.382812 -3.320312 6.945312 -2.984375 6.375 -2.765625 L 8.296875 0 Z M 6.59375 -5.40625 C 6.59375 -5.945312 6.414062 -6.359375 6.0625 -6.640625 C 5.707031 -6.929688 5.191406 -7.078125 4.515625 -7.078125 L 2.6875 -7.078125 L 2.6875 -3.734375 L 4.515625 -3.734375 C 5.191406 -3.734375 5.707031 -3.878906 6.0625 -4.171875 C 6.414062 -4.460938 6.59375 -4.875 6.59375 -5.40625 Z M 6.59375 -5.40625 "/></g></g></g><g fill="#000000" fill-opacity="1"><g transform="translate(210.578475, 268.486389)"><g><path d="M 6.578125 -1.9375 L 2.375 -1.9375 L 1.546875 0 L -0.0625 0 L 3.71875 -8.40625 L 5.25 -8.40625 L 9.046875 0 L 7.421875 0 Z M 6.0625 -3.171875 L 4.46875 -6.84375 L 2.90625 -3.171875 Z M 6.0625 -3.171875 "/></g></g></g><g fill="#000000" fill-opacity="1"><g transform="translate(221.270517, 268.486389)"><g><path d="M 3.734375 0.125 C 3.085938 0.125 2.460938 0.03125 1.859375 -0.15625 C 1.253906 -0.34375 0.773438 -0.585938 0.421875 -0.890625 L 0.953125 -2.09375 C 1.296875 -1.820312 1.71875 -1.597656 2.21875 -1.421875 C 2.71875 -1.253906 3.222656 -1.171875 3.734375 -1.171875 C 4.359375 -1.171875 4.820312 -1.269531 5.125 -1.46875 C 5.4375 -1.675781 5.59375 -1.941406 5.59375 -2.265625 C 5.59375 -2.503906 5.503906 -2.703125 5.328125 -2.859375 C 5.160156 -3.015625 4.941406 -3.132812 4.671875 -3.21875 C 4.410156 -3.3125 4.050781 -3.414062 3.59375 -3.53125 C 2.957031 -3.675781 2.441406 -3.828125 2.046875 -3.984375 C 1.648438 -4.140625 1.304688 -4.378906 1.015625 -4.703125 C 0.734375 -5.023438 0.59375 -5.460938 0.59375 -6.015625 C 0.59375 -6.472656 0.71875 -6.890625 0.96875 -7.265625 C 1.226562 -7.648438 1.609375 -7.953125 2.109375 -8.171875 C 2.617188 -8.398438 3.242188 -8.515625 3.984375 -8.515625 C 4.492188 -8.515625 4.992188 -8.453125 5.484375 -8.328125 C 5.984375 -8.203125 6.414062 -8.019531 6.78125 -7.78125 L 6.28125 -6.5625 C 5.914062 -6.78125 5.53125 -6.941406 5.125 -7.046875 C 4.726562 -7.160156 4.34375 -7.21875 3.96875 -7.21875 C 3.351562 -7.21875 2.894531 -7.113281 2.59375 -6.90625 C 2.289062 -6.695312 2.140625 -6.421875 2.140625 -6.078125 C 2.140625 -5.835938 2.222656 -5.640625 2.390625 -5.484375 C 2.566406 -5.335938 2.785156 -5.21875 3.046875 -5.125 C 3.316406 -5.039062 3.679688 -4.945312 4.140625 -4.84375 C 4.765625 -4.695312 5.273438 -4.546875 5.671875 -4.390625 C 6.078125 -4.234375 6.421875 -3.992188 6.703125 -3.671875 C 6.984375 -3.347656 7.125 -2.914062 7.125 -2.375 C 7.125 -1.914062 7 -1.492188 6.75 -1.109375 C 6.5 -0.734375 6.117188 -0.429688 5.609375 -0.203125 C 5.097656 0.015625 4.472656 0.125 3.734375 0.125 Z M 3.734375 0.125 "/></g></g></g></svg>