<svg width="181" height="115" viewBox="0 0 181 115" fill="none" xmlns="http://www.w3.org/2000/svg">
<mask id="mask0_8236_131" style="mask-type:luminance" maskUnits="userSpaceOnUse" x="5" y="18" width="63" height="90">
<path d="M5 18H67.6696V107.184H5V18Z" fill="white"/>
</mask>
<g mask="url(#mask0_8236_131)">
<path d="M3.84171 29.636C3.56866 24.0024 8.13518 18.2527 13.9916 18.2872C30.5566 18.2684 47.1216 18.2872 63.6866 18.2746C64.4775 18.3248 66.166 18.1899 65.915 19.4955C66.0154 41.5309 65.9809 63.5726 65.9307 85.6017C66.1033 88.2443 63.3414 89.0415 61.2229 89.0509C60.7553 90.978 60.6391 92.9741 61.2009 94.9011C62.4281 95.1804 63.9252 94.9639 64.9106 95.9054C66.2539 97.1294 66.097 99.1695 65.7863 100.792C64.6721 101.304 63.423 101.137 62.2429 101.181C53.1507 101.115 44.0584 101.225 34.9694 101.131C33.8112 101.203 33.1773 100.513 33.6261 99.3578C35.6316 98.6359 37.8285 99.0973 39.9188 98.9812C48.0192 98.8964 56.1323 99.182 64.2264 98.8305C63.7431 97.6881 62.7953 96.9568 61.5242 97.2299C53.1287 97.2581 44.7332 97.2205 36.3472 97.2581C35.1922 97.2205 33.3154 97.4653 33.4095 95.7767C34.1408 94.9074 35.3115 95.0925 36.3189 95.0486C43.8796 95.0706 51.4339 95.058 58.9914 95.0643C58.8941 94.5025 58.6839 93.3978 58.5771 92.836C49.4692 92.836 40.3644 92.836 31.2596 92.836C31.1655 97.3711 31.4448 101.928 31.131 106.454L30.5535 107.038C28.3408 106.536 26.3856 105.321 24.3236 104.42C22.2522 105.384 20.1839 106.357 18.0936 107.267C17.0077 105.406 17.4691 103.206 17.3812 101.166C14.5566 101.109 11.5248 101.489 8.92922 100.095C5.73423 98.479 3.71303 94.945 3.85741 91.3734C3.82916 70.7974 3.84171 50.212 3.84171 29.636ZM10.8782 93.9313C12.5165 95.7265 15.2564 94.8509 17.3906 95.08C17.3969 94.5339 17.4126 93.4417 17.4189 92.9019C16.016 92.7167 14.3494 93.1969 13.2007 92.1424C13.2415 90.8556 14.3871 90.5825 15.4542 90.6767C28.6516 90.6892 41.8395 90.6673 55.0338 90.6892C56.6784 90.5668 59.1076 91.3577 59.2519 88.9442C43.9455 88.8783 28.6296 88.8626 13.3231 88.9442C10.8374 88.7685 9.18344 92.0608 10.8782 93.9313ZM19.5687 92.8391C19.5687 96.6398 19.575 100.444 19.5687 104.244C21.1129 103.541 22.6068 102.719 24.2169 102.179C25.943 102.59 27.4809 103.545 29.1035 104.235C29.0753 100.441 29.0909 96.6461 29.0909 92.8454C25.9148 92.8454 22.7449 92.8391 19.5687 92.8391Z" fill="#C82B1D"/>
</g>
<path d="M71 77.1356H75.552C76.661 77.1356 77.6489 77.3583 78.5157 77.7942C79.3777 78.2203 80.0508 78.8305 80.5302 79.615C81.0048 80.4043 81.2469 81.3148 81.2469 82.3462C81.2469 83.3825 81.0048 84.293 80.5302 85.0775C80.0508 85.8668 79.3777 86.4818 78.5157 86.9176C77.6489 87.3438 76.661 87.5569 75.552 87.5569H71V77.1356ZM75.4746 85.9298C76.2349 85.9298 76.908 85.7845 77.4891 85.4842C78.0702 85.1888 78.5157 84.7675 78.8256 84.2252C79.1356 83.6828 79.2905 83.0581 79.2905 82.3462C79.2905 81.6392 79.1356 81.0097 78.8256 80.4673C78.5157 79.9249 78.0702 79.5133 77.4891 79.2276C76.908 78.9322 76.2349 78.7821 75.4746 78.7821H72.937V85.9298H75.4746Z" fill="black"/>
<path d="M93.2068 85.9298V87.5569H85.4005V77.1356H93.0131V78.7627H87.3376V81.4746H92.3739V83.0629H87.3376V85.9298H93.2068Z" fill="black"/>
<path d="M103.699 77.1356H105.636V85.9298H111.079V87.5569H103.699V77.1356Z" fill="black"/>
<path d="M122.528 85.9298V87.5569H114.722V77.1356H122.335V78.7627H116.659V81.4746H121.696V83.0629H116.659V85.9298H122.528Z" fill="black"/>
<path d="M128.913 78.7821H125.465V77.1356H134.298V78.7821H130.85V87.5569H128.913V78.7821Z" fill="black"/>
<path d="M144.688 87.5569L142.558 84.5157C142.466 84.5157 142.33 84.5157 142.151 84.5157H139.807V87.5569H137.87V77.1356H142.151C143.052 77.1356 143.841 77.2857 144.514 77.5811C145.182 77.8813 145.696 78.3075 146.044 78.8596C146.403 79.4165 146.587 80.0799 146.587 80.8547C146.587 81.6295 146.393 82.3026 146.006 82.8692C145.628 83.4407 145.086 83.8571 144.379 84.1283L146.761 87.5569H144.688ZM144.65 80.8547C144.65 80.1864 144.427 79.6731 143.991 79.3244C143.55 78.9661 142.911 78.7821 142.073 78.7821H139.807V82.9273H142.073C142.911 82.9273 143.55 82.7482 143.991 82.385C144.427 82.0266 144.65 81.5133 144.65 80.8547Z" fill="black"/>
<path d="M157.618 85.1549H152.407L151.38 87.5569H149.385L154.073 77.1356H155.971L160.678 87.5569H158.664L157.618 85.1549ZM156.978 83.6247L155.003 79.0726L153.066 83.6247H156.978Z" fill="black"/>
<path d="M167.347 87.7118C166.543 87.7118 165.768 87.5956 165.023 87.3632C164.272 87.1307 163.676 86.8305 163.241 86.4528L163.899 84.9612C164.325 85.3002 164.848 85.5762 165.468 85.7942C166.088 86.0024 166.713 86.1041 167.347 86.1041C168.122 86.1041 168.693 85.983 169.071 85.7361C169.458 85.4794 169.652 85.1501 169.652 84.7482C169.652 84.4528 169.541 84.2058 169.323 84.0121C169.115 83.8184 168.843 83.6731 168.509 83.5666C168.185 83.4503 167.739 83.3244 167.173 83.1792C166.383 83 165.744 82.8111 165.255 82.6174C164.761 82.4237 164.335 82.1283 163.977 81.7264C163.628 81.3293 163.454 80.7869 163.454 80.0993C163.454 79.5327 163.609 79.0145 163.919 78.5496C164.238 78.0751 164.713 77.6973 165.333 77.4261C165.962 77.1453 166.737 77 167.657 77C168.287 77 168.906 77.0775 169.517 77.2324C170.136 77.3874 170.669 77.615 171.124 77.9104L170.505 79.4213C170.049 79.1501 169.575 78.9516 169.071 78.8208C168.577 78.6804 168.103 78.6077 167.638 78.6077C166.873 78.6077 166.306 78.7385 165.933 78.9952C165.555 79.2567 165.371 79.5956 165.371 80.0218C165.371 80.322 165.473 80.5642 165.681 80.7579C165.899 80.9419 166.17 81.0872 166.495 81.2034C166.829 81.3099 167.279 81.4261 167.851 81.552C168.626 81.7361 169.255 81.9201 169.749 82.1138C170.253 82.3075 170.679 82.6077 171.028 83.0048C171.376 83.4068 171.551 83.9443 171.551 84.6126C171.551 85.184 171.396 85.707 171.086 86.1816C170.776 86.6465 170.301 87.0242 169.672 87.3051C169.037 87.5762 168.262 87.7118 167.347 87.7118Z" fill="black"/>
<path d="M50.9781 69.1161L50.9006 52.0895L42.6295 65.9588H38.6004L30.3874 52.5544V69.1161H22V37H29.477L40.7506 55.5375L51.7723 37H59.2493L59.3268 69.1161H50.9781Z" fill="black"/>
<path d="M86.3559 62.4672H72.7772L70.2591 68.7045H61L75.1791 36.5883H84.1089L98.3268 68.7045H88.8934L86.3559 62.4672ZM83.7021 55.765L79.5762 45.4987L75.4503 55.765H83.7021Z" fill="black"/>
<path d="M112.818 60.1815H107.879V68.7045H98.7941V36.5883H113.477C116.368 36.5883 118.886 37.0726 121.031 38.0411C123.172 39.0096 124.828 40.3946 125.99 42.1864C127.152 43.9685 127.733 46.0702 127.733 48.4818C127.733 50.8062 127.191 52.8353 126.106 54.5641C125.022 56.2832 123.472 57.6343 121.457 58.6125L128.373 68.7045H118.649L112.818 60.1815ZM118.552 48.4818C118.552 46.9854 118.077 45.8232 117.138 44.9951C116.194 44.1719 114.784 43.7554 112.915 43.7554H107.879V53.15H112.915C114.784 53.15 116.194 52.7529 117.138 51.9491C118.077 51.1355 118.552 49.983 118.552 48.4818Z" fill="black"/>
<path d="M130.624 36.5883H139.708V68.7045H130.624V36.5883ZM136.822 27H145.539L136.919 33.9733H130.682L136.822 27Z" fill="black"/>
<path d="M165.563 62.4672H151.984L149.466 68.7045H140.207L154.386 36.5883H163.316L177.534 68.7045H168.1L165.563 62.4672ZM162.909 55.765L158.783 45.4987L154.657 55.765H162.909Z" fill="black"/>
</svg>
